<?xml version="1.0" encoding="UTF-8"?>
<svg id="Layer_1" data-name="Layer 1" xmlns="http://www.w3.org/2000/svg" viewBox="0 0 124.71 12.77">
  <defs>
    <style>
      .cls-1 {
        fill: #fff;
        stroke-width: 0px;
      }
    </style>
  </defs>
  <path class="cls-1" d="M0,.24h2.46l2.34,3.95L7.13.24h2.45l-3.71,6.16v3.84h-2.2v-3.89L0,.24Z"/>
  <path class="cls-1" d="M8.83,5.22c.03-.47.14-.85.35-1.16.21-.31.47-.56.78-.74.32-.19.67-.32,1.07-.4.4-.08.8-.12,1.2-.12.36,0,.73.03,1.11.08.37.05.71.15,1.02.3.31.15.56.36.76.62s.29.62.29,1.06v3.77c0,.33.02.64.06.94.04.3.1.52.2.67h-2.02c-.04-.11-.07-.23-.09-.34s-.04-.24-.05-.36c-.32.33-.69.56-1.12.69-.43.13-.87.2-1.32.2-.35,0-.67-.04-.97-.13s-.56-.21-.78-.39-.4-.4-.52-.67c-.13-.27-.19-.59-.19-.97,0-.41.07-.75.22-1.01.14-.27.33-.48.56-.64.23-.16.49-.28.78-.36.29-.08.59-.14.89-.19s.59-.08.88-.11c.29-.03.55-.07.77-.13.22-.06.4-.14.53-.24.13-.11.19-.26.18-.47,0-.21-.04-.38-.1-.51-.07-.13-.16-.22-.28-.29-.12-.07-.25-.12-.41-.14-.15-.02-.32-.04-.5-.04-.39,0-.7.08-.92.25-.22.17-.35.45-.39.84h-1.99ZM13.43,6.69c-.08.07-.19.13-.31.17s-.26.08-.41.1c-.15.03-.3.05-.46.07s-.32.04-.48.07c-.15.03-.3.07-.44.11-.14.05-.27.11-.38.19-.11.08-.19.18-.26.3-.07.12-.1.28-.1.46s.03.33.1.45c.06.12.15.22.27.29.11.07.24.12.39.15.15.03.3.04.46.04.39,0,.7-.07.91-.2.21-.13.37-.29.48-.47.1-.18.17-.37.19-.55.02-.19.04-.34.04-.45v-.74Z"/>
  <path class="cls-1" d="M18.84,3v1.01h.04c.25-.42.58-.73.98-.92s.81-.29,1.23-.29c.53,0,.97.07,1.31.22.34.14.61.35.81.6.2.26.33.57.41.94.08.37.12.78.12,1.22v4.45h-1.99v-4.09c0-.6-.09-1.04-.28-1.34-.19-.29-.52-.44-.99-.44-.54,0-.93.16-1.18.48-.24.32-.36.85-.36,1.59v3.79h-1.99V3h1.89Z"/>
  <path class="cls-1" d="M24.67,11.13c.21,0,.39-.04.54-.12s.23-.25.23-.52V3h1.99v7.59c0,.37-.04.7-.12.97-.08.27-.21.5-.41.68-.19.18-.45.32-.78.41s-.74.13-1.25.13c-.23,0-.44-.02-.63-.06v-1.64c.1.04.24.06.42.06ZM25.44,1.88V.24h1.99v1.64h-1.99Z"/>
  <path class="cls-1" d="M34.05,10.23v-1.01h-.04c-.25.42-.58.72-.98.91s-.81.28-1.23.28c-.53,0-.97-.07-1.31-.21-.34-.14-.61-.34-.8-.6-.2-.26-.33-.57-.41-.94-.08-.37-.12-.78-.12-1.23V3h1.99v4.09c0,.6.09,1.04.28,1.34s.52.44.99.44c.54,0,.93-.16,1.18-.48s.36-.85.36-1.59v-3.79h1.99v7.24h-1.89Z"/>
  <path class="cls-1" d="M39.34,3v1.01h.04c.25-.42.58-.73.98-.92s.81-.29,1.23-.29c.53,0,.97.07,1.31.22.34.14.61.35.81.6.2.26.33.57.41.94.08.37.12.78.12,1.22v4.45h-1.99v-4.09c0-.6-.09-1.04-.28-1.34-.19-.29-.52-.44-.99-.44-.54,0-.93.16-1.18.48-.24.32-.36.85-.36,1.59v3.79h-1.99V3h1.89Z"/>
  <path class="cls-1" d="M52.05.24v8.15h4.87v1.85h-7.07V.24h2.2Z"/>
  <path class="cls-1" d="M58,1.88V.24h1.99v1.64h-1.99ZM59.99,3v7.24h-1.99V3h1.99Z"/>
  <path class="cls-1" d="M66.46,10.23v-1.01h-.04c-.25.42-.58.72-.98.91s-.81.28-1.23.28c-.53,0-.97-.07-1.31-.21-.34-.14-.61-.34-.8-.6-.2-.26-.33-.57-.41-.94-.08-.37-.12-.78-.12-1.23V3h1.99v4.09c0,.6.09,1.04.28,1.34s.52.44.99.44c.54,0,.93-.16,1.18-.48s.36-.85.36-1.59v-3.79h1.99v7.24h-1.89Z"/>
  <path class="cls-1" d="M72.04.24v2.14c0,.31-.04.6-.13.87-.1.27-.24.51-.41.71-.18.21-.39.38-.64.51-.25.14-.52.22-.8.26v-.92c.35-.12.6-.3.73-.54.13-.24.2-.53.2-.88h-.92V.24h1.99Z"/>
  <path class="cls-1" d="M74.39,8.44c.09.15.2.28.34.38.14.1.3.17.48.22.18.05.37.07.57.07.14,0,.29-.02.44-.05.15-.03.29-.08.42-.15.13-.07.23-.16.31-.28.08-.12.13-.26.13-.44,0-.3-.2-.52-.6-.67-.4-.15-.95-.3-1.66-.45-.29-.06-.57-.14-.85-.23-.28-.09-.52-.21-.73-.35-.21-.15-.39-.33-.52-.55-.13-.22-.2-.49-.2-.8,0-.47.09-.85.27-1.15.18-.3.42-.53.72-.71s.63-.29,1.01-.36c.37-.07.76-.1,1.15-.1s.77.04,1.14.11c.37.07.7.2.99.38.29.18.53.41.72.71.19.29.31.67.34,1.11h-1.89c-.03-.38-.17-.64-.43-.78s-.57-.2-.92-.2c-.11,0-.23,0-.36.02-.13.01-.25.04-.36.09-.11.05-.2.11-.27.2-.07.09-.11.21-.11.36,0,.18.06.32.2.43s.3.2.51.27c.21.07.45.13.72.19.27.06.55.12.83.18.29.07.57.15.85.24.27.09.52.22.73.37.21.15.39.35.52.57.13.23.2.51.2.85,0,.48-.1.88-.29,1.2-.19.32-.44.58-.75.78-.31.2-.66.33-1.06.41-.4.08-.8.12-1.21.12s-.83-.04-1.23-.13c-.4-.08-.76-.22-1.07-.42-.31-.2-.57-.46-.77-.78-.2-.32-.31-.73-.33-1.21h1.89c0,.21.04.4.13.55Z"/>
  <path class="cls-1" d="M86.01,7.77c.12.23.28.42.48.57.2.15.44.25.71.32.27.07.55.1.84.1.2,0,.41-.02.63-.05.22-.03.43-.1.63-.19s.36-.22.49-.38c.13-.16.2-.37.2-.62,0-.27-.09-.49-.26-.66-.17-.17-.4-.31-.68-.42-.28-.11-.6-.21-.95-.29-.35-.08-.71-.18-1.08-.28-.37-.09-.74-.21-1.09-.34-.35-.14-.67-.31-.95-.52-.28-.21-.51-.48-.68-.81-.17-.32-.26-.71-.26-1.17,0-.51.11-.96.33-1.34s.51-.69.86-.95c.35-.25.76-.44,1.2-.56.45-.12.9-.18,1.34-.18.52,0,1.02.06,1.5.17.48.12.91.31,1.28.57.37.26.67.6.89,1,.22.41.33.9.33,1.48h-2.13c-.02-.3-.08-.55-.19-.74-.11-.2-.25-.35-.43-.46-.18-.11-.38-.19-.61-.24-.23-.05-.48-.07-.75-.07-.18,0-.35.02-.53.06-.18.04-.34.1-.48.2s-.26.21-.36.35c-.09.14-.14.32-.14.53,0,.2.04.35.11.48.07.12.22.23.44.34.22.1.52.21.91.31.39.1.89.23,1.52.39.19.04.45.1.78.2.33.1.66.25.99.47.33.21.61.5.85.86.24.36.36.82.36,1.38,0,.46-.09.88-.27,1.27s-.44.73-.79,1.01c-.35.29-.78.51-1.3.67-.52.16-1.12.24-1.8.24-.55,0-1.08-.07-1.6-.2-.52-.14-.98-.35-1.37-.64-.4-.29-.71-.66-.95-1.11-.23-.45-.35-.98-.34-1.6h2.13c0,.34.06.62.18.85Z"/>
  <path class="cls-1" d="M95.1,3v.92h.03c.24-.39.55-.68.92-.85.37-.18.78-.27,1.23-.27.57,0,1.06.11,1.47.32s.75.5,1.02.85c.27.35.47.77.6,1.24.13.47.2.96.2,1.48,0,.49-.07.95-.2,1.4-.13.45-.33.84-.59,1.19-.27.35-.6.62-.99.83-.4.21-.86.31-1.39.31-.45,0-.86-.09-1.24-.27-.38-.18-.69-.45-.93-.81h-.03v3.43h-1.99V3h1.89ZM97.68,8.74c.22-.13.4-.3.53-.51.13-.21.23-.46.29-.74.06-.28.08-.56.08-.85s-.03-.57-.09-.85c-.06-.28-.16-.53-.3-.75-.14-.22-.32-.4-.54-.53-.22-.14-.49-.2-.81-.2s-.6.07-.82.2c-.22.14-.4.31-.53.52-.14.21-.23.46-.29.74-.06.28-.08.57-.08.87s.03.57.09.85c.06.28.16.52.29.74.14.21.31.38.54.51.22.13.49.2.81.2s.6-.07.82-.2Z"/>
  <path class="cls-1" d="M101.68,5.22c.03-.47.14-.85.35-1.16.21-.31.47-.56.78-.74.32-.19.67-.32,1.07-.4.4-.08.8-.12,1.2-.12.36,0,.73.03,1.11.08.37.05.71.15,1.02.3.31.15.56.36.76.62s.29.62.29,1.06v3.77c0,.33.02.64.06.94.04.3.1.52.2.67h-2.02c-.04-.11-.07-.23-.09-.34s-.04-.24-.05-.36c-.32.33-.69.56-1.12.69-.43.13-.87.2-1.32.2-.35,0-.67-.04-.97-.13s-.56-.21-.78-.39-.4-.4-.52-.67c-.13-.27-.19-.59-.19-.97,0-.41.07-.75.22-1.01.14-.27.33-.48.56-.64.23-.16.49-.28.78-.36.29-.08.59-.14.89-.19s.59-.08.88-.11c.29-.03.55-.07.77-.13.22-.06.4-.14.53-.24.13-.11.19-.26.18-.47,0-.21-.04-.38-.1-.51-.07-.13-.16-.22-.28-.29-.12-.07-.25-.12-.41-.14-.15-.02-.32-.04-.5-.04-.39,0-.7.08-.92.25-.22.17-.35.45-.39.84h-1.99ZM106.27,6.69c-.08.07-.19.13-.31.17s-.26.08-.41.1c-.15.03-.3.05-.46.07s-.32.04-.48.07c-.15.03-.3.07-.44.11-.14.05-.27.11-.38.19-.11.08-.19.18-.26.3-.07.12-.1.28-.1.46s.03.33.1.45c.06.12.15.22.27.29.11.07.24.12.39.15.15.03.3.04.46.04.39,0,.7-.07.91-.2.21-.13.37-.29.48-.47.1-.18.17-.37.19-.55.02-.19.04-.34.04-.45v-.74Z"/>
  <path class="cls-1" d="M113.26,4.3c-.32,0-.58.07-.8.22-.21.15-.39.33-.52.56-.14.23-.23.48-.29.76s-.08.55-.08.82.03.53.08.8c.06.27.15.52.27.74s.3.4.51.54c.21.14.48.21.78.21.48,0,.84-.13,1.1-.4.26-.27.42-.62.48-1.07h1.92c-.13.96-.5,1.69-1.12,2.2-.62.5-1.4.76-2.37.76-.54,0-1.04-.09-1.49-.27-.45-.18-.84-.44-1.15-.76s-.56-.72-.74-1.17-.27-.95-.27-1.49.08-1.08.24-1.56c.16-.48.4-.9.72-1.25.32-.35.7-.62,1.16-.82.46-.2.98-.29,1.57-.29.43,0,.84.06,1.24.17.4.11.75.28,1.06.51.31.23.57.51.76.85.2.34.31.74.34,1.21h-1.95c-.13-.83-.62-1.25-1.47-1.25Z"/>
  <path class="cls-1" d="M119.96,8.5c.3.29.73.43,1.29.43.4,0,.75-.1,1.04-.3.29-.2.47-.41.53-.64h1.75c-.28.87-.71,1.49-1.29,1.86-.58.37-1.28.56-2.1.56-.57,0-1.08-.09-1.54-.27-.46-.18-.84-.44-1.16-.78s-.56-.74-.73-1.2c-.17-.47-.26-.98-.26-1.54s.09-1.05.27-1.51.43-.87.76-1.21c.33-.34.72-.61,1.17-.81.45-.2.95-.29,1.5-.29.62,0,1.15.12,1.61.36.46.24.83.56,1.13.96.29.4.51.86.64,1.37.13.51.18,1.05.14,1.61h-5.22c.03.64.19,1.11.49,1.4ZM122.21,4.69c-.24-.26-.6-.39-1.08-.39-.32,0-.58.05-.79.16s-.38.24-.5.4-.21.33-.27.5-.08.34-.09.48h3.23c-.09-.5-.26-.89-.5-1.15Z"/>
</svg>